<?xml version="1.0" encoding="UTF-8" standalone="no"?>
<svg width="100%" height="100%" viewBox="0 0 456 456" preserveAspectRatio="xMidYMid meet" xmlns="http://www.w3.org/2000/svg">
  <defs>
    <style>.cls-1{fill:#fff;}</style>
  </defs>
  <g id="Layer_1-2" transform="translate(70, 100) scale(4)">
    <g>
      <g>
        <g>
          <path class="cls-1" d="M27.6 0C25.613 0 24 1.613 24 3.6c0 1.52 0.967 2.88 2.4 3.387V16c0 0.66 0.54 1.2 1.2 1.2 0.127 0 0.247 -0.02 0.367 -0.06l9.18 -2.96A3.607 3.607 0 0 0 40 15.6c1.987 0 3.6 -1.613 3.6 -3.6s-1.613 -3.6 -3.6 -3.6c-1.947 0 -3.54 1.553 -3.593 3.5L28.8 14.353V6.987a3.603 3.603 0 0 0 2.4 -3.387c0 -1.987 -1.613 -3.6 -3.6 -3.6"/>
          <path class="cls-1" d="M52.4 40c1.987 0 3.6 -1.613 3.6 -3.6 0 -1.52 -0.967 -2.88 -2.4 -3.387V24c0 -0.66 -0.54 -1.2 -1.2 -1.2 -0.127 0 -0.247 0.02 -0.367 0.06l-9.18 2.96A3.607 3.607 0 0 0 40 24.4c-1.987 0 -3.6 1.613 -3.6 3.6s1.613 3.6 3.6 3.6c1.947 0 3.54 -1.553 3.593 -3.5l7.607 -2.453v7.367a3.603 3.603 0 0 0 -2.4 3.387c0 1.987 1.613 3.6 3.6 3.6"/>
          <path class="cls-1" d="M52.4 0c-1.987 0 -3.6 1.613 -3.6 3.6 0 1.527 0.96 2.887 2.4 3.393v8.133L27.233 22.853c-0.493 0.16 -0.833 0.62 -0.827 1.14V33c-1.44 0.507 -2.4 1.867 -2.4 3.393 0 1.987 1.613 3.6 3.6 3.6s3.6 -1.613 3.6 -3.6c0 -1.527 -0.96 -2.887 -2.4 -3.393V24.867l23.967 -7.733c0.493 -0.16 0.833 -0.62 0.833 -1.14V6.98c1.433 -0.507 2.4 -1.867 2.4 -3.393C56 1.613 54.387 0 52.4 0"/>
        </g>
        <g>
          <path class="cls-1" d="M0.2 53.947q-0.2 -0.18 -0.2 -0.46v-5.913c0 -0.193 0.067 -0.353 0.2 -0.467q0.2 -0.18 0.54 -0.18c0.18 0 0.333 0.06 0.453 0.18s0.18 0.273 0.18 0.46v2.267h3.393v-2.267c0 -0.18 0.067 -0.333 0.207 -0.46s0.307 -0.187 0.5 -0.187q0.27 0 0.46 0.18c0.19 0.18 0.187 0.273 0.187 0.46v5.913c0 0.18 -0.06 0.333 -0.187 0.46s-0.28 0.187 -0.46 0.187 -0.353 -0.06 -0.493 -0.187a0.6 0.6 0 0 1 -0.213 -0.46v-2.28H1.373v2.28q0 0.27 -0.18 0.46c-0.12 0.127 -0.273 0.187 -0.453 0.187q-0.34 0 -0.54 -0.18Z"/>
          <path class="cls-1" d="M9.44 54.153c-0.113 0 -0.193 -0.007 -0.247 -0.02 -0.127 -0.067 -0.227 -0.16 -0.3 -0.273s-0.113 -0.24 -0.113 -0.38c0 -0.12 0.027 -0.233 0.08 -0.347l2.987 -5.84q0.1 -0.21 0.28 -0.32c0.12 -0.073 0.24 -0.107 0.373 -0.107s0.253 0.033 0.367 0.107 0.2 0.18 0.267 0.32l2.933 5.84c0.053 0.107 0.08 0.213 0.08 0.333 0 0.193 -0.073 0.36 -0.227 0.487 -0.147 0.133 -0.32 0.2 -0.507 0.2 -0.12 0 -0.227 -0.033 -0.32 -0.093a0.627 0.627 0 0 1 -0.24 -0.28l-0.46 -0.913h-3.84l-0.447 0.913c-0.12 0.253 -0.347 0.373 -0.68 0.373Zm3.053 -5.24 -1.28 2.573h2.46l-1.173 -2.573Z"/>
          <path class="cls-1" d="M19.967 53.967c-0.14 0.127 -0.307 0.187 -0.493 0.187s-0.347 -0.06 -0.48 -0.18q-0.2 -0.18 -0.2 -0.5v-5.913c0 -0.18 0.06 -0.333 0.18 -0.453q0.18 -0.18 0.44 -0.18h2.767c0.487 0 0.907 0.113 1.267 0.333s0.627 0.513 0.813 0.873 0.273 0.74 0.273 1.147c0 0.453 -0.113 0.867 -0.347 1.24s-0.573 0.653 -1.027 0.833l1.387 1.687c0.1 0.147 0.147 0.293 0.147 0.447 0 0.187 -0.067 0.347 -0.2 0.473s-0.3 0.193 -0.487 0.193c-0.24 0 -0.453 -0.113 -0.627 -0.333l-1.573 -2.247h-1.633v1.887c0 0.213 -0.073 0.387 -0.213 0.513Zm2.22 -3.593c0.327 0 0.58 -0.113 0.773 -0.333q0.28 -0.33 0.28 -0.78c0 -0.45 -0.093 -0.54 -0.273 -0.753 -0.187 -0.213 -0.44 -0.32 -0.773 -0.32h-2.007v2.187h2.007Z"/>
          <path class="cls-1" d="M27.813 53.973c-0.14 -0.107 -0.213 -0.267 -0.213 -0.487v-5.913c0 -0.18 0.073 -0.333 0.227 -0.46 0.147 -0.127 0.313 -0.187 0.493 -0.187h2.387c0.753 0 1.4 0.173 1.933 0.513s0.933 0.787 1.2 1.333q0.4 0.82 0.4 1.76c0 0.94 -0.133 1.213 -0.393 1.76 -0.267 0.547 -0.653 0.993 -1.18 1.333s-1.147 0.513 -1.873 0.513h-2.48c-0.193 0 -0.36 -0.053 -0.507 -0.16Zm1.16 -1.107h1.727c0.453 0 0.84 -0.113 1.167 -0.34s0.573 -0.52 0.74 -0.88 0.247 -0.747 0.247 -1.153 -0.08 -0.767 -0.247 -1.12 -0.407 -0.633 -0.733 -0.847q-0.49 -0.32 -1.18 -0.32h-1.727v4.667Z"/>
          <path class="cls-1" d="m44.507 51.64 1.553 -4.287c0.06 -0.153 0.147 -0.267 0.26 -0.347s0.233 -0.12 0.373 -0.12c0.18 0 0.34 0.06 0.473 0.18q0.2 0.18 0.2 0.46c0 0.08 -0.02 0.18 -0.053 0.28l-2.06 5.593c-0.093 0.293 -0.187 0.493 -0.293 0.607s-0.247 0.167 -0.427 0.167c-0.167 0 -0.293 -0.047 -0.38 -0.133s-0.193 -0.247 -0.32 -0.473l-1.813 -4.113 -1.727 4.053q-0.16 0.35 -0.32 0.52c-0.107 0.113 -0.247 0.167 -0.42 0.167s-0.313 -0.06 -0.42 -0.173 -0.207 -0.293 -0.3 -0.533l-2.02 -5.673c-0.033 -0.107 -0.053 -0.193 -0.053 -0.273 0 -0.2 0.067 -0.36 0.207 -0.48s0.3 -0.18 0.487 -0.18c0.14 0 0.267 0.04 0.387 0.12s0.2 0.193 0.253 0.347l1.54 4.287 1.84 -4.287c0.06 -0.153 0.147 -0.273 0.253 -0.36s0.22 -0.133 0.34 -0.133 0.227 0.04 0.333 0.113 0.187 0.193 0.253 0.347l1.84 4.32Z"/>
          <path class="cls-1" d="M49.693 54.153c-0.113 0 -0.193 -0.007 -0.247 -0.02 -0.127 -0.067 -0.227 -0.16 -0.3 -0.273s-0.113 -0.24 -0.113 -0.38c0 -0.12 0.027 -0.233 0.08 -0.347l2.987 -5.84q0.1 -0.21 0.28 -0.32c0.12 -0.073 0.24 -0.107 0.373 -0.107s0.253 0.033 0.367 0.107 0.2 0.18 0.267 0.32l2.933 5.84c0.053 0.107 0.08 0.213 0.08 0.333 0 0.193 -0.073 0.36 -0.227 0.487 -0.147 0.133 -0.32 0.2 -0.507 0.2 -0.12 0 -0.227 -0.033 -0.32 -0.093a0.627 0.627 0 0 1 -0.24 -0.28l-0.46 -0.913h-3.84l-0.447 0.913c-0.12 0.253 -0.347 0.373 -0.68 0.373Zm3.053 -5.24 -1.28 2.573h2.46l-1.173 -2.573Z"/>
          <path class="cls-1" d="M60.213 53.967c-0.14 0.127 -0.307 0.187 -0.493 0.187s-0.347 -0.06 -0.48 -0.18q-0.2 -0.18 -0.2 -0.5v-5.913c0 -0.18 0.06 -0.333 0.18 -0.453q0.18 -0.18 0.44 -0.18h2.767c0.487 0 0.907 0.113 1.267 0.333s0.627 0.513 0.813 0.873 0.273 0.74 0.273 1.147c0 0.453 -0.113 0.867 -0.347 1.24s-0.573 0.653 -1.027 0.833l1.387 1.687c0.1 0.147 0.147 0.293 0.147 0.447 0 0.187 -0.067 0.347 -0.2 0.473s-0.3 0.193 -0.487 0.193c-0.24 0 -0.453 -0.113 -0.627 -0.333l-1.573 -2.247h-1.633v1.887c0 0.213 -0.073 0.387 -0.213 0.513Zm2.22 -3.593c0.327 0 0.58 -0.113 0.773 -0.333q0.28 -0.33 0.28 -0.78c0 -0.45 -0.093 -0.54 -0.273 -0.753 -0.187 -0.213 -0.44 -0.32 -0.773 -0.32h-2.007v2.187h2.007Z"/>
          <path class="cls-1" d="M67.92 47.553c0 -0.2 0.067 -0.36 0.207 -0.48s0.3 -0.18 0.487 -0.18 0.347 0.06 0.48 0.173 0.2 0.273 0.2 0.487v5.947c0 0.207 -0.067 0.367 -0.2 0.487 -0.133 0.113 -0.3 0.173 -0.493 0.173 -0.18 0 -0.34 -0.06 -0.473 -0.173s-0.2 -0.273 -0.2 -0.487v-5.947Z"/>
          <path class="cls-1" d="M79.467 52.513c-0.36 0.567 -0.82 0.993 -1.387 1.287q-0.85 0.44 -1.8 0.44 -1 0.04 -1.9 -0.38c-0.6 -0.28 -1.087 -0.707 -1.46 -1.287 -0.373 -0.573 -0.56 -1.273 -0.56 -2.08s0.187 -1.507 0.56 -2.08 0.86 -1.007 1.46 -1.3q0.9 -0.44 1.9 -0.44c0.64 0.033 1.24 0.2 1.813 0.5 0.567 0.3 1.033 0.733 1.387 1.293 0.353 0.567 0.533 1.24 0.533 2.027s-0.18 1.46 -0.533 2.027Zm-1.187 -3.367a2.353 2.353 0 0 0 -0.927 -0.847c-0.38 -0.187 -0.773 -0.28 -1.193 -0.28s-0.793 0.093 -1.167 0.28 -0.68 0.467 -0.913 0.847 -0.353 0.82 -0.353 1.34 0.12 0.967 0.353 1.34 0.54 0.653 0.913 0.847 0.767 0.287 1.167 0.287 0.813 -0.093 1.193 -0.287a2.353 2.353 0 0 0 0.927 -0.847q0.36 -0.56 0.36 -1.34c0 -0.78 -0.12 -0.967 -0.36 -1.34"/>
        </g>
      </g>
    </g>
  </g>
</svg>