<?xml version="1.0" encoding="UTF-8"?>
<svg id="Layer_1" xmlns="http://www.w3.org/2000/svg" version="1.1" viewBox="0 0 456 456">
  <!-- Generator: Adobe Illustrator 29.3.1, SVG Export Plug-In . SVG Version: 2.1.0 Build 151)  -->
  <defs>
    <style>
      .st0 {
        fill: #6c6b6b;
      }

      .st1 {
        fill: #fff;
      }

      .st2 {
        fill: #e21e2a;
      }

      .st3 {
        display: none;
      }
    </style>
  </defs>
  <rect class="st1" width="456" height="456" rx="50" ry="50"/>
  <g id="Layer_1-2">
    <g>
      <g>
        <path class="st2" d="M119.5,53c-17.5,0-31.5,14-31.5,31.5h0c0,13.4,8.8,25.1,21,29.7v78.8c0,5.8,4.7,10.5,10.5,10.5s2.3,0,2.9,0l80.5-25.7c5.8,7.6,15.2,12.2,25.1,12.2,17.5,0,31.5-14,31.5-31.5h0c0-17.5-14-31.5-31.5-31.5s-30.9,13.4-31.5,30.3l-66.5,21.6v-64.7c12.8-4.7,21-16.3,21-29.7s-14-31.5-31.5-31.5h0Z"/>
        <path class="st2" d="M336.5,403c17.5,0,31.5-14,31.5-31.5h0c0-13.4-8.2-25.1-21-29.7v-78.8c0-5.8-4.7-10.5-10.5-10.5s-2.3,0-3.5,0l-80.5,25.7c-5.8-7.6-15.2-12.2-25.1-12.2-17.5,0-31.5,14-31.5,31.5h0c0,17.5,14,31.5,31.5,31.5h0c16.9,0,30.9-13.4,31.5-30.3l66.5-21.6v64.2c-12.8,4.7-21,16.3-21,29.7s14,31.5,31.5,31.5h0l.6.6Z"/>
        <path class="st0" d="M336.5,53c-17.5,0-31.5,14-31.5,31.5h0c0,13.4,8.2,25.1,21,29.7v71.2l-210,67.7c-4.1,1.2-7,5.3-7,9.9v78.8c-12.8,4.7-21,16.3-21,29.7s14,31.5,31.5,31.5h0c17.5,0,31.5-14,31.5-31.5h0c0-13.4-8.2-25.1-21-29.7v-71.2l210-67.7c4.1-1.2,7-5.3,7-9.9v-78.8c12.8-4.7,21-16.3,21-29.7s-14-31.5-31.5-31.5h0Z"/>
      </g>
      <g class="st3">
        <path class="st2" d="M28.7,362c-.7-.7-1-1.3-1-2.3v-29.7c0-1,.3-1.7,1-2.3s1.7-1,2.7-1,1.7,0,2.3,1,1,1.3,1,2.3v11.3h17v-11.3c0-1,0-1.7,1-2.3s1.7-1,2.7-1,1.7,0,2.3,1,1,1.3,1,2.3v29.7c0,1,0,1.7-1,2.3s-1.3,1-2.3,1-1.7,0-2.3-1-1-1.3-1-2.3v-11.3h-17v11.3c0,1,0,1.7-1,2.3-.7.7-1.3,1-2.3,1s-2,0-2.7-1h-.3Z"/>
        <path class="st2" d="M74.7,363h-1.3c-.7,0-1-.7-1.3-1.3s-.7-1.3-.7-2,0-1,.3-1.7l15-29.3c.3-.7.7-1.3,1.3-1.7s1.3-.7,2-.7,1.3,0,1.7.7,1,1,1.3,1.7l14.7,29.3v1.7c0,1,0,1.7-1,2.3s-1.7,1-2.7,1h-1.7s-1-.7-1.3-1.3l-2.3-4.7h-19.3l-2.3,4.7c-.7,1.3-1.7,2-3.3,2h.7l.3-.7ZM90,337l-6.3,13h12.3l-6-13h0Z"/>
        <path class="st2" d="M127.4,362c-.7.7-1.7,1-2.3,1s-1.7,0-2.3-1c-.7-.7-1-1.3-1-2.7v-29.7c0-1,0-1.7,1-2.3s1.3-1,2.3-1h14c2.3,0,4.7.7,6.3,1.7s3,2.7,4,4.3,1.3,3.7,1.3,5.7-.7,4.3-1.7,6.3-3,3.3-5,4l7,8.3c.7.7.7,1.3.7,2.3s0,1.7-1,2.3-1.7,1-2.3,1-2.3-.7-3-1.7l-8-11.3h-8.3v9.3c0,1,0,2-1,2.7h0s-.7.7-.7.7ZM138.4,344c1.7,0,3-.7,4-1.7s1.3-2.3,1.3-4,0-2.7-1.3-3.7c-1-1-2.3-1.7-4-1.7h-10v11s10,0,10,0Z"/>
        <path class="st2" d="M166.7,362c-.7-.7-1-1.3-1-2.3v-29.7c0-1,0-1.7,1-2.3s1.7-1,2.3-1h12c3.7,0,7,1,9.7,2.7,2.7,1.7,4.7,4,6,6.7,1.3,2.7,2,5.7,2,8.7s-.7,6-2,8.7-3.3,5-6,6.7-5.7,2.7-9.3,2.7h-12.3c-1,0-1.7,0-2.7-.7h.3ZM172.4,356.7h8.7c2.3,0,4.3-.7,6-1.7s3-2.7,3.7-4.3,1.3-3.7,1.3-5.7,0-4-1.3-5.7-2-3-3.7-4.3c-1.7-1-3.7-1.7-6-1.7h-8.7v23.3h0Z"/>
        <path class="st2" d="M250,350.4l7.7-21.3c0-.7.7-1.3,1.3-1.7s1-.7,2-.7,1.7,0,2.3,1,1,1.3,1,2.3v1.3l-10.3,28c0,1.3-1,2.3-1.3,3-.7.7-1.3.7-2,.7s-1.3,0-2-.7-1-1.3-1.7-2.3l-9-20.7-8.7,20.3c-.7,1-1,2-1.7,2.7s-1.3.7-2,.7-1.7,0-2-1c-.7-.7-1-1.3-1.7-2.7l-10-28.3v-1.3c0-1,0-1.7,1-2.3s1.7-1,2.3-1,1.3,0,2,.7,1,1,1.3,1.7l7.7,21.3,9.3-21.3c0-.7.7-1.3,1.3-1.7s1-.7,1.7-.7,1,0,1.7.7,1,1,1.3,1.7l9.3,21.7h-1Z"/>
        <path class="st2" d="M276,363h-1.3c-.7,0-1-.7-1.3-1.3s-.7-1.3-.7-2v-1.7l15-29.3c0-.7.7-1.3,1.3-1.7s1.3-.7,2-.7,1.3,0,2,.7c.7,0,1,1,1.3,1.7l14.7,29.3v1.7c0,1,0,1.7-1,2.3-.7.7-1.7,1-2.7,1h-1.7c-.7,0-1-.7-1.3-1.3l-2.3-4.7h-19.3l-2.3,4.7c-.7,1.3-1.7,2-3.3,2h.3l.7-.7ZM291.4,337l-6.3,13h12.3l-6-13h0Z"/>
        <path class="st2" d="M328.7,362c-.7.7-1.7,1-2.3,1s-1.7,0-2.3-1c-.7-.7-1-1.3-1-2.7v-29.7c0-1,0-1.7,1-2.3s1.3-1,2.3-1h14c2.3,0,4.7.7,6.3,1.7s3,2.7,4,4.3,1.3,3.7,1.3,5.7-.7,4.3-1.7,6.3-3,3.3-5,4l7,8.3c.7.7.7,1.3.7,2.3s0,1.7-1,2.3c-.7.7-1.3,1-2.3,1s-2.3-.7-3-1.7l-8-11.3h-8v9.3c0,1,0,2-1,2.7h0l-1,.7h0ZM339.7,344c1.7,0,3-.7,4-1.7,1-1,1.3-2.3,1.3-4s0-2.7-1.3-3.7c-1-1-2.3-1.7-4-1.7h-10v11s10,0,10,0Z"/>
        <path class="st2" d="M367,330c0-1,0-1.7,1-2.3s1.3-1,2.3-1,1.7,0,2.3,1c.7.7,1,1.3,1,2.3v29.7c0,1,0,2-1,2.3-.7.7-1.3,1-2.3,1s-1.7,0-2.3-1c-.7-.7-1-1.3-1-2.3v-29.7h0Z"/>
        <path class="st2" d="M425,355c-1.7,2.7-4,5-7,6.3s-6,2.3-9,2.3-6.3-.7-9.3-2-5.3-3.7-7.3-6.3c-2-3-2.7-6.3-2.7-10.3s1-7.7,2.7-10.3,4.3-5,7.3-6.3c3-1.3,6-2.3,9.3-2.3s6.3,1,9,2.7c2.7,1.3,5.3,3.7,7,6.3s2.7,6.3,2.7,10-1,7.3-2.7,10h0ZM419,338c-1.3-2-2.7-3.3-4.7-4.3s-4-1.3-6-1.3-4,0-6,1.3-3.3,2.3-4.7,4.3-1.7,4-1.7,6.7.7,4.7,1.7,6.7,2.7,3.3,4.7,4.3,4,1.3,6,1.3,4,0,6-1.3,3.3-2.3,4.7-4.3c1.3-2,1.7-4,1.7-6.7s-.7-4.7-1.7-6.7Z"/>
      </g>
    </g>
  </g>
</svg>